<svg id="Camada_1" data-name="Camada 1" xmlns="http://www.w3.org/2000/svg" viewBox="0 0 795.74 191.39"><defs><style>.cls-1{fill:#020202;}.cls-2{fill:#030303;}.cls-3{fill:#fefefe;}</style></defs><path class="cls-1" d="M151.07,521.51c0-22.33.09-44.66-.08-67,0-4.12,1.16-5.47,5.37-5.44,24.32.18,48.65-.18,73,.18,16.11.24,31.42,4.18,42.09,17.2,13.52,16.49,14.12,35.71,6.87,54.68-7.12,18.62-22.81,26.57-42,27.74-11.62.72-23.28.88-34.92.83-4.53,0-5.22,2-5.17,5.74.14,11.16-.13,22.33.14,33.48.1,4.33-1.55,5.37-5.55,5.29q-17-.3-34,0c-4.32.09-5.83-1.34-5.8-5.74C151.16,566.16,151.07,543.83,151.07,521.51Zm45.17-22c0,3.82.11,7.66,0,11.48-.12,3.18,1.14,4.61,4.36,4.5,7-.22,13.95-.18,20.91-.52,8.6-.42,14.32-6.31,14.58-14.64.28-9-5.2-15.7-14-16.36-7.12-.54-14.3-.31-21.45-.48-3.17-.08-4.52,1.37-4.43,4.53C196.32,491.87,196.24,495.7,196.24,499.53Z" transform="translate(-150.99 -449.09)"/><path class="cls-2" d="M629.16,499c12.43-15.93,28.52-19.14,47-14.14,8.21,2.23,14,7.57,17.71,15.05,6.73,13.37,7.56,27.75,7,42.34-.61,15.46-1.35,30.92-1.75,46.39-.11,4-1.25,5.38-5.45,5.26-10.65-.32-21.32-.23-32-.05-4.07.07-5.59-1.34-5.55-5.52.16-18.16.08-36.32,0-54.48a40.37,40.37,0,0,0-.42-7.47c-1.23-6.45-4.81-9.63-10.68-9.89-6.45-.29-11.09,2.73-13.07,8.6-1.88,5.6-2.13,11.42-2.13,17.26,0,15.16-.15,30.33.1,45.49.08,4.72-1.69,6.11-6.14,6q-15.48-.31-30.95,0c-4.39.08-5.77-1.62-5.75-5.91q.2-48.5,0-97c0-4.32,1.56-6.1,5.86-5.87a271.84,271.84,0,0,0,29.94,0c4.21-.23,5.59,1.42,5.37,5.54C628.12,493.31,627.29,496.22,629.16,499Z" transform="translate(-150.99 -449.09)"/><path class="cls-2" d="M449.19,539c0,6.83.05,13.66,0,20.49,0,3.44.88,6,4.88,6,2,0,2.52.95,2.51,2.78-.07,7.66-.06,15.33,0,23,0,2.25-1.18,3.33-3.27,3.67-9.43,1.52-18.86,2.13-28.26-.15a32.28,32.28,0,0,1-13.44-7.34c-1.57-1.36-2.84-2.26-5-.26-13.91,12.91-40.32,12-55.1,2-10-6.78-13.2-16.83-12.25-28.29.91-10.95,5.7-19.72,16.06-24.66,11.86-5.66,24.82-7.25,37.42-10.19,3.08-.72,6.17-1.4,9.17-2.36,2.72-.86,4.74-2.76,4.84-5.73s-1.68-5.26-4.46-6.6a12.25,12.25,0,0,0-16.89,5.92c-2.06,4.27-4.65,5.25-9,4.81q-14.14-1.46-28.36-2.2c-4.51-.23-5.05-2.14-3.81-5.88,4.86-14.73,15.46-23.57,29.81-27.62,17.35-4.9,34.86-4.78,52,1.49,14.77,5.39,22.75,16.45,23.14,32.13C449.32,526.33,449.19,532.67,449.19,539ZM407,545.9c-3.46,1-6.64,1.82-9.79,2.77s-6.18,1.58-8.94,3a10.36,10.36,0,0,0-5.4,12.21c1.23,4.33,4.09,6.77,8.64,6.93,5.56.19,11.91-4.06,13.46-9.35A51,51,0,0,0,407,545.9Z" transform="translate(-150.99 -449.09)"/><path class="cls-2" d="M895.94,540.1c0,6.83,0,13.66,0,20.48,0,2.69.8,4.78,3.79,4.74s3.52,1.26,3.45,3.91c-.17,6.82-.11,13.65,0,20.48,0,3.39-1.18,5.17-4.82,5.5a114.43,114.43,0,0,1-24.89-.07c-6-.76-11.25-3.15-15.13-7.8-1.8-2.17-2.7-2.32-4.94-.48-14.63,12-37.89,13.2-54.22,3-10.71-6.68-14.1-16.78-13.26-28.69.78-11,5.35-19.72,15.71-24.79,10.59-5.18,22.09-7,33.45-9.37,4.39-.92,8.76-2,13-3.27,2.81-.84,5.08-2.47,5.05-6s-1.92-5.52-5-6.72c-6.56-2.61-12.92-.39-16.34,6.35-2,3.88-4.39,5.13-8.64,4.68-9.92-1.06-19.87-1.76-29.82-2.49-3.08-.22-3.81-1.21-2.89-4.33,5-17,17.31-25.95,33.64-29.88a85.17,85.17,0,0,1,45.34,1.31q25.59,7.77,26.45,34.42c.2,6.32,0,12.65,0,19Zm-42.51,12c-1.71-1,1.4-5.66-2.12-5.2-6.6.86-13.51,2-18.94,6.55a10.22,10.22,0,0,0-2.09,12.69c2.23,4,6.72,5.53,11.6,4C848.92,567.91,853.34,561.27,853.43,552.15Z" transform="translate(-150.99 -449.09)"/><path class="cls-2" d="M518.42,596.73c-15.83-.24-31.12-2.54-44.22-12.52a23.77,23.77,0,0,1-8.1-10c-2.35-5.93.57-12.13,6.76-13.1a208.79,208.79,0,0,1,23.33-2c3.77-.18,6.2,2.6,8.42,5.49a18.59,18.59,0,0,0,21.58,5.49c3.31-1.48,5.61-3.59,5.28-7.54s-3.32-4.76-6.28-5.4c-9.74-2.1-19.54-4-29.28-6.09-3.56-.77-7-2-10.52-3-20.94-6.45-23.94-28-18-42.11,3.62-8.6,10.77-13.54,18.93-16.74,21.51-8.44,43.14-8.54,64.55.62a31.81,31.81,0,0,1,14.39,11.93c5,7.57,1.24,15.4-7.75,16.27-5.62.55-11.26,1-16.9,1.44-4.73.39-8.2-1.57-11.1-5.34-4.33-5.62-11-7.42-16.86-5-3,1.24-5.37,3.38-5.15,6.63s2.82,4.59,5.88,5.24c12.51,2.68,25.12,5,37.48,8.26,19.4,5.1,28.74,22.24,23.12,41.28C571.22,580,564.62,586,556,590,544,595.52,531.33,596.55,518.42,596.73Z" transform="translate(-150.99 -449.09)"/><path class="cls-1" d="M774.13,565.49q0,25,0,50c0,6.67-1,7.37-7.15,5-2.54-1-2.87.18-3,2.18-.29,4-.62,8-1,11.94-.31,3-1.43,5.58-5,5.83s-6.32-.91-7.05-4.77c-1.06-5.55-1.88-11.14-3-16.68s-2.54-6.11-7.22-3.19c-5,3.08-7.82,1.84-8.57-3.95a66.59,66.59,0,0,1-.33-8.48c0-22.82,0-45.65,0-68.47A54.54,54.54,0,0,0,731,526c-1.64-9.78-10.07-14-18.54-8.76-3.53,2.17-4.24.94-5.23-2-1.71-5.2-3.48-10.38-5.5-15.46-1.37-3.43-.27-5.87,2.46-7.7,14.46-9.75,30.36-12.64,47.12-8.34,13.73,3.51,22.11,15.76,22.54,32.34s.1,33,.1,49.47Z" transform="translate(-150.99 -449.09)"/><path class="cls-2" d="M289.87,525.49c0-20.82.11-41.65-.09-62.47,0-4.08,1.34-5.15,5.16-5.08q14.74.3,29.49,0c4-.08,5.28,1.51,5.28,5.28q-.15,62.73-.16,125.44c0,6.26-.08,6.33-6.52,6.33-9.16,0-18.34-.26-27.48.11-4.87.2-6.05-2-6-6.16.06-21.15,0-42.3,0-63.45Z" transform="translate(-150.99 -449.09)"/><path class="cls-2" d="M930.55,594.16c-9.58,0-16.17-6.15-16.14-15.06s6.94-15.08,16.39-14.94c9.29.14,15.86,6.32,15.93,15C946.79,588.05,940.22,594.16,930.55,594.16Z" transform="translate(-150.99 -449.09)"/><path class="cls-3" d="M196.24,499.53c0-3.83.08-7.66,0-11.49-.09-3.16,1.26-4.61,4.43-4.53,7.15.17,14.33-.06,21.45.48,8.76.66,14.24,7.41,14,16.36-.26,8.33-6,14.22-14.58,14.64-7,.34-13.94.3-20.91.52-3.22.11-4.48-1.32-4.36-4.5C196.35,507.19,196.24,503.35,196.24,499.53Z" transform="translate(-150.99 -449.09)"/><path class="cls-3" d="M407,545.9a51,51,0,0,1-2,15.55c-1.55,5.29-7.9,9.54-13.46,9.35-4.55-.16-7.41-2.6-8.64-6.93a10.36,10.36,0,0,1,5.4-12.21c2.76-1.41,5.93-2.08,8.94-3S403.54,546.88,407,545.9Z" transform="translate(-150.99 -449.09)"/><path class="cls-3" d="M853.43,552.15c-.09,9.12-4.51,15.76-11.55,18-4.88,1.56-9.37,0-11.6-4a10.22,10.22,0,0,1,2.09-12.69c5.43-4.59,12.34-5.69,18.94-6.55C854.83,546.49,851.72,551.13,853.43,552.15Z" transform="translate(-150.99 -449.09)"/></svg>