<?xml version="1.0" encoding="utf-8"?>
<!-- Generator: Adobe Illustrator 25.0.0, SVG Export Plug-In . SVG Version: 6.00 Build 0)  -->
<svg version="1.1" id="Camada_1" xmlns="http://www.w3.org/2000/svg" xmlns:xlink="http://www.w3.org/1999/xlink" x="0px" y="0px"
	 viewBox="0 0 795.7 191.4" style="enable-background:new 0 0 795.7 191.4;" xml:space="preserve">
<style type="text/css">
	.st0{fill:#FEFEFE;}
</style>
<path class="st0" d="M0.1,72.4c0-22.3,0.1-44.7-0.1-67C0,1.3,1.2,0,5.4,0c24.3,0.2,48.7-0.2,73,0.2c16.1,0.2,31.4,4.2,42.1,17.2
	c13.5,16.5,14.1,35.7,6.9,54.7c-7.1,18.6-22.8,26.6-42,27.7c-11.6,0.7-23.3,0.9-34.9,0.8c-4.5,0-5.2,2-5.2,5.7
	c0.1,11.2-0.1,22.3,0.1,33.5c0.1,4.3-1.6,5.4-5.6,5.3c-11.3-0.2-22.7-0.2-34,0c-4.3,0.1-5.8-1.3-5.8-5.7
	C0.2,117.1,0.1,94.7,0.1,72.4z M45.2,50.4c0,3.8,0.1,7.7,0,11.5c-0.1,3.2,1.1,4.6,4.4,4.5c7-0.2,13.9-0.2,20.9-0.5
	c8.6-0.4,14.3-6.3,14.6-14.6c0.3-9-5.2-15.7-14-16.4c-7.1-0.5-14.3-0.3-21.4-0.5c-3.2-0.1-4.5,1.4-4.4,4.5
	C45.3,42.8,45.2,46.6,45.2,50.4L45.2,50.4z"/>
<path class="st0" d="M478.2,49.9c12.4-15.9,28.5-19.1,47-14.1c8.2,2.2,14,7.6,17.7,15c6.7,13.4,7.6,27.8,7,42.3
	c-0.6,15.5-1.3,30.9-1.8,46.4c-0.1,4-1.2,5.4-5.5,5.3c-10.7-0.3-21.3-0.2-32,0c-4.1,0.1-5.6-1.3-5.5-5.5c0.2-18.2,0.1-36.3,0-54.5
	c0.1-2.5,0-5-0.4-7.5c-1.2-6.5-4.8-9.6-10.7-9.9c-6.5-0.3-11.1,2.7-13.1,8.6c-1.9,5.6-2.1,11.4-2.1,17.3c0,15.2-0.2,30.3,0.1,45.5
	c0.1,4.7-1.7,6.1-6.1,6c-10.3-0.2-20.6-0.2-31,0c-4.4,0.1-5.8-1.6-5.8-5.9c0.1-32.3,0.1-64.7,0-97c0-4.3,1.6-6.1,5.9-5.9
	c10,0.6,20,0.6,29.9,0c4.2-0.2,5.6,1.4,5.4,5.5C477.1,44.2,476.3,47.1,478.2,49.9z"/>
<path class="st0" d="M298.2,89.9c0,6.8,0,13.7,0,20.5c0,3.4,0.9,6,4.9,6c2,0,2.5,1,2.5,2.8c-0.1,7.7-0.1,15.3,0,23
	c0,2.2-1.2,3.3-3.3,3.7c-9.4,1.5-18.9,2.1-28.3-0.2c-5-1.3-9.6-3.9-13.4-7.3c-1.6-1.4-2.8-2.3-5-0.3c-13.9,12.9-40.3,12-55.1,2
	c-10-6.8-13.2-16.8-12.2-28.3c0.9-11,5.7-19.7,16.1-24.7c11.9-5.7,24.8-7.2,37.4-10.2c3.1-0.7,6.2-1.4,9.2-2.4
	c2.7-0.9,4.7-2.8,4.8-5.7s-1.7-5.3-4.5-6.6c-6-3.1-13.4-0.8-16.5,5.2c-0.1,0.2-0.2,0.5-0.4,0.7c-2.1,4.3-4.6,5.2-9,4.8
	c-9.4-1-18.9-1.7-28.4-2.2c-4.5-0.2-5-2.1-3.8-5.9c4.9-14.7,15.5-23.6,29.8-27.6c17.4-4.9,34.9-4.8,52,1.5
	c14.8,5.4,22.8,16.5,23.1,32.1C298.3,77.2,298.2,83.6,298.2,89.9z M256,96.8c-3.5,1-6.6,1.8-9.8,2.8s-6.2,1.6-8.9,3
	c-4.5,2.2-6.8,7.4-5.4,12.2c1.2,4.3,4.1,6.8,8.6,6.9c5.6,0.2,11.9-4.1,13.5-9.3C255.5,107.3,256.1,102.1,256,96.8z"/>
<path class="st0" d="M745,91c0,6.8,0,13.7,0,20.5c0,2.7,0.8,4.8,3.8,4.7s3.5,1.3,3.5,3.9c-0.2,6.8-0.1,13.7,0,20.5
	c0,3.4-1.2,5.2-4.8,5.5c-8.3,0.9-16.6,0.9-24.9-0.1c-6-0.8-11.2-3.2-15.1-7.8c-1.8-2.2-2.7-2.3-4.9-0.5c-14.6,12-37.9,13.2-54.2,3
	c-10.7-6.7-14.1-16.8-13.3-28.7c0.8-11,5.3-19.7,15.7-24.8c10.6-5.2,22.1-7,33.5-9.4c4.4-0.9,8.8-2,13-3.3c2.8-0.8,5.1-2.5,5-6
	s-1.9-5.5-5-6.7c-6.6-2.6-12.9-0.4-16.3,6.4c-2,3.9-4.4,5.1-8.6,4.7c-9.9-1.1-19.9-1.8-29.8-2.5c-3.1-0.2-3.8-1.2-2.9-4.3
	c5-17,17.3-26,33.6-29.9c15-3.7,30.6-3.2,45.3,1.3c17.1,5.2,25.9,16.7,26.5,34.4C745.1,78.3,744.9,84.6,745,91L745,91z M702.4,103
	c-1.7-1,1.4-5.7-2.1-5.2c-6.6,0.9-13.5,2-18.9,6.5c-3.6,3.2-4.5,8.5-2.1,12.7c2.2,4,6.7,5.5,11.6,4
	C697.9,118.8,702.4,112.2,702.4,103L702.4,103z"/>
<path class="st0" d="M367.4,147.6c-15.8-0.2-31.1-2.5-44.2-12.5c-3.6-2.5-6.4-6-8.1-10c-2.4-5.9,0.6-12.1,6.8-13.1
	c7.7-1.1,15.5-1.8,23.3-2c3.8-0.2,6.2,2.6,8.4,5.5c5.2,6.4,14,8.6,21.6,5.5c3.3-1.5,5.6-3.6,5.3-7.5s-3.3-4.8-6.3-5.4
	c-9.7-2.1-19.5-4-29.3-6.1c-3.6-0.8-7-2-10.5-3c-20.9-6.5-23.9-28-18-42.1c3.6-8.6,10.8-13.5,18.9-16.7c21.5-8.4,43.1-8.5,64.5,0.6
	c5.9,2.4,10.9,6.6,14.4,11.9c5,7.6,1.2,15.4-7.8,16.3c-5.6,0.5-11.3,1-16.9,1.4c-4.7,0.4-8.2-1.6-11.1-5.3c-4.3-5.6-11-7.4-16.9-5
	c-3,1.2-5.4,3.4-5.2,6.6c0.2,3.2,2.8,4.6,5.9,5.2c12.5,2.7,25.1,5,37.5,8.3c19.4,5.1,28.7,22.2,23.1,41.3c-2.8,9.5-9.4,15.5-18,19.5
	C393,146.4,380.3,147.5,367.4,147.6z"/>
<path class="st0" d="M623.1,116.4c0,16.7,0,33.3,0,50c0,6.7-1,7.4-7.2,5c-2.5-1-2.9,0.2-3,2.2c-0.3,4-0.6,8-1,11.9
	c-0.3,3-1.4,5.6-5,5.8s-6.3-0.9-7-4.8c-1.1-5.5-1.9-11.1-3-16.7s-2.5-6.1-7.2-3.2c-5,3.1-7.8,1.8-8.6-4c-0.3-2.8-0.4-5.6-0.3-8.5
	c0-22.8,0-45.7,0-68.5c0-3-0.3-6-0.8-8.9c-1.6-9.8-10.1-14-18.5-8.8c-3.5,2.2-4.2,0.9-5.2-2c-1.7-5.2-3.5-10.4-5.5-15.5
	c-1.4-3.4-0.3-5.9,2.5-7.7c14.5-9.8,30.4-12.6,47.1-8.3c13.7,3.5,22.1,15.8,22.5,32.3s0.1,33,0.1,49.5L623.1,116.4z"/>
<path class="st0" d="M138.9,76.4c0-20.8,0.1-41.6-0.1-62.5c0-4.1,1.3-5.1,5.2-5.1c9.8,0.2,19.7,0.2,29.5,0c4-0.1,5.3,1.5,5.3,5.3
	c-0.1,41.8-0.2,83.6-0.2,125.4c0,6.3-0.1,6.3-6.5,6.3c-9.2,0-18.3-0.3-27.5,0.1c-4.9,0.2-6-2-6-6.2c0.1-21.2,0-42.3,0-63.5
	L138.9,76.4z"/>
<path class="st0" d="M779.6,145.1c-9.6,0-16.2-6.2-16.1-15.1s6.9-15.1,16.4-14.9c9.3,0.1,15.9,6.3,15.9,15
	C795.8,139,789.2,145.1,779.6,145.1z"/>
</svg>
